<?xml version="1.0" encoding="UTF-8"?> <svg xmlns="http://www.w3.org/2000/svg" width="405" height="405" viewBox="0 0 405 405" fill="none"> <g clip-path="url(#clip0)"> <rect x="-107" y="-7" width="625" height="412" fill="white"></rect> <path d="M306.03 304.19C302.436 307.784 297.734 309.577 293.033 309.577C288.323 309.577 283.613 307.784 280.027 304.19C287.206 311.369 287.206 323.006 280.027 330.193C276.441 333.779 271.731 335.58 267.021 335.58C262.319 335.58 257.617 333.779 254.024 330.193L242.069 318.238C249.248 325.418 249.248 337.062 242.069 344.241C238.483 347.827 233.774 349.627 229.072 349.627C224.37 349.627 219.668 347.826 216.075 344.249V344.241H216.067C174.459 375.419 84.5352 269.964 60.2684 239.96L51.1172 198.263L106.293 133.723C145.815 124.433 183.137 130.447 183.137 130.447L251.074 173.18L306.03 278.187C313.209 285.366 313.209 297.011 306.03 304.19V304.19Z" fill="#F3BFBB"></path> <path d="M216.066 344.242C174.458 375.419 84.5344 269.964 60.2676 239.96L70.1031 217.25C105.437 268.49 156.571 322.998 186.706 314.874L216.066 344.242Z" fill="#E0B0AD"></path> <path d="M343.621 232.741C340.973 240.824 339.554 248.632 342.88 255.436V255.444C327.926 277.218 311.279 286.255 310.814 286.508C310.015 283.46 308.418 280.575 306.03 278.188L210.81 182.967C199.035 186.895 186.502 197.415 177.383 206.362C172.909 210.746 167.05 212.987 161.151 212.987C156.327 212.987 151.478 211.487 147.355 208.44C147.046 208.212 146.736 207.976 146.442 207.731C146.434 207.723 146.425 207.715 146.418 207.707C138.09 200.878 135.49 189.119 140.379 179.414C160.14 140.16 192.883 123.642 203.003 119.316C204.967 118.476 207.085 118.069 209.22 118.15C219.031 118.501 228.737 120.473 237.962 123.382C269.148 133.193 294.898 153.712 300.896 158.732C306.249 172.772 345.014 179.732 350.897 193.544C355.828 205.107 348.021 219.295 343.621 232.741V232.741Z" fill="#FBCDCA"></path> <path d="M342.88 255.435V255.443C327.927 277.217 311.279 286.254 310.814 286.507C310.015 283.459 308.418 280.574 306.031 278.187L248.271 220.428C268.595 240.751 312.566 249.438 332.897 234.476C335.619 232.48 339.294 232.023 343.621 232.741C340.974 240.824 339.555 248.631 342.88 255.435V255.435Z" fill="#E0B0AD"></path> <path d="M146.418 207.707C138.09 200.878 135.49 189.119 140.379 179.414C160.14 140.161 192.883 123.643 203.003 119.316C204.967 118.477 207.085 118.069 209.22 118.151C219.031 118.501 228.737 120.473 237.962 123.383C194.659 123.406 133.705 195.215 146.418 207.707V207.707Z" fill="#E0B0AD"></path> <path d="M309.202 299.941C308.38 301.465 307.32 302.9 306.033 304.187C302.439 307.78 297.737 309.573 293.035 309.573C288.326 309.573 283.615 307.78 280.03 304.187L219.289 243.445C221.948 238.666 228.441 237.759 232.308 241.627L287.445 296.771C291.03 300.364 295.74 302.157 300.45 302.157C303.465 302.158 306.48 301.424 309.202 299.941V299.941Z" fill="#E0B0AD"></path> <path d="M245.544 339.439C244.672 341.175 243.523 342.796 242.081 344.239C238.495 347.825 233.785 349.625 229.075 349.625C224.373 349.625 219.671 347.824 216.078 344.239L166.703 294.857C172.602 291.1 180.319 291.946 185.264 296.891L224.348 335.976C227.934 339.562 232.644 341.363 237.346 341.363C240.158 341.362 242.969 340.718 245.544 339.439V339.439Z" fill="#E0B0AD"></path> <path d="M283.061 326.173C282.262 327.615 281.244 328.968 280.021 330.191C276.428 333.776 271.726 335.577 267.024 335.577C262.314 335.577 257.604 333.776 254.018 330.191L198.475 274.636C202.773 270.977 209.161 271.234 213.153 275.225L249.112 311.187L261.058 323.142C264.652 326.735 269.354 328.529 274.064 328.529C277.17 328.528 280.274 327.745 283.061 326.173V326.173Z" fill="#E0B0AD"></path> <path d="M354.556 122.819C333.455 126.891 314.204 135.231 296.803 147.84C311.499 187.567 328.313 226.376 347.244 264.268C361.311 261.554 374.556 256.942 386.979 250.433C397.679 244.827 402.345 231.97 397.962 220.715C385.002 187.43 370.533 154.798 354.556 122.819V122.819Z" fill="#95D6A4"></path> <path d="M386.99 250.436C374.567 256.947 361.321 261.558 347.249 264.271C342.32 254.398 337.54 244.467 332.9 234.478C354.883 230.205 374.972 221.579 393.169 208.589C394.79 212.619 396.389 216.658 397.965 220.706C402.348 231.966 397.692 244.827 386.99 250.436Z" fill="#78C2A4"></path> <path d="M50.441 103.609C71.5413 107.68 90.7923 116.021 108.194 128.63C93.4975 168.357 76.6837 207.165 57.7523 245.057C40.9314 241.812 25.2859 235.853 10.8158 227.181C4.39515 223.334 1.70727 215.383 4.37933 208.39C18.0093 172.717 33.3637 137.789 50.441 103.609V103.609Z" fill="#A6D9E5"></path> <path d="M10.8082 227.183C25.2774 235.859 40.9237 241.817 57.7502 245.061C62.679 235.188 67.4583 225.257 72.0984 215.268C50.1161 210.995 30.0267 202.369 11.8294 189.379C9.2902 195.694 6.80483 202.03 4.37562 208.389C1.70436 215.382 4.38828 223.334 10.8082 227.183V227.183Z" fill="#80CDE2"></path> </g> <defs> <clipPath id="clip0"> <rect width="405" height="405" rx="50" fill="white"></rect> </clipPath> </defs> </svg> 